<?xml version="1.0" encoding="UTF-8"?>
<svg id="Capa_1" data-name="Capa 1" xmlns="http://www.w3.org/2000/svg" viewBox="0 0 50 41.27">
  <defs>
    <style>
      .cls-1 {
        fill: #f2906c;
      }

      .cls-1, .cls-2, .cls-3, .cls-4, .cls-5, .cls-6, .cls-7, .cls-8 {
        stroke-width: 0px;
      }

      .cls-2 {
        fill: #f4a7ae;
      }

      .cls-3 {
        fill: #ee727e;
      }

      .cls-4 {
        fill: #bc4164;
      }

      .cls-5 {
        fill: #34bef0;
      }

      .cls-6 {
        fill: #f9b96c;
      }

      .cls-7 {
        fill: #8a82bd;
      }

      .cls-8 {
        fill: #a7c049;
      }
    </style>
  </defs>
  <path class="cls-6" d="m50,9.04c0,.13-.11.24-.24.24s-.24-.11-.24-.24.11-.24.24-.24.24.11.24.24Z"/>
  <g>
    <g>
      <polygon class="cls-5" points="19.29 30.21 12.7 31.07 10.39 21.49 19.08 20.37 19.29 30.21"/>
      <polygon class="cls-5" points="19.08 20.37 10.39 21.49 11.5 18.74 17.3 17.98 19.08 20.37"/>
      <rect class="cls-5" x="11.4" y="17.14" width="5.85" height="1.22" transform="translate(-2.16 1.99) rotate(-7.38)"/>
    </g>
    <path class="cls-4" d="m31.91,21.22c.44-5.33-4.7-10.71-10.14-8.67-1.53.57-2.8,1.91-3.13,3.53-.31,1.52.29,3.22,1.57,4.11,2.17,1.51,5.42.43,7.56,1.99.79.58,1.49,1.53,2.47,1.45.53-.04,1-.42,1.27-.88.27-.46.37-1,.41-1.53Zm-3.13-.41c-.7-.14-1.16-.83-1.01-1.53.14-.7.83-1.16,1.53-1.01.7.14,1.16.83,1.01,1.53-.14.7-.83,1.16-1.53,1.01Z"/>
    <g>
      <path class="cls-1" d="m15.1,5.38h-2.37c-.2.33-.45.64-.75.9-.01-.3,0-.61.04-.91h-2.72c-.08.18-.15.37-.23.56-.06-.19-.1-.38-.12-.57h-1.79c-.72,0-.9.99-.23,1.24l2.95,1.11c.15-.41.38-.78.68-1.1-.05.43-.1.87-.15,1.3l2.83,1.06c.22-.53.43-1.06.65-1.58-.05.59-.09,1.18-.14,1.78l.61.23c1.21.45,2.54-.3,2.77-1.57.23-1.27-.74-2.44-2.03-2.45Z"/>
      <g>
        <path class="cls-1" d="m23.7,9.03h0c-1.86-1.12-5.09-1.71-7.23-1.32h0,0c1.86,1.12,5.09,1.71,7.23,1.32Z"/>
        <path class="cls-1" d="m22.81,11.42h0c-1.36-1.68-4.2-3.35-6.34-3.71h0,0c1.36,1.68,4.2,3.35,6.34,3.71Z"/>
        <path class="cls-1" d="m23.71,6.48h0c-1.87,1.09-5.11,1.64-7.24,1.23h0,0c1.87-1.09,5.11-1.64,7.24-1.23Z"/>
      </g>
    </g>
    <path class="cls-2" d="m32.42,12.56c-.36-.42-.9-.57-1.4-.45l.06-.47c.04-.3-.28-.5-.54-.34l-.7.44c-.25.16-.21.54.08.63l.41.14c-.5.52-.53,1.34-.05,1.9,1.83,2.13,2.79,4.95,2.63,7.75-.05.89-.21,1.59-.49,2.14-.28.56-.73.98-1.19,1.12-.55.17-1.28.03-1.96-.4-.76-.47-1.44-1.23-2.1-1.96-.42-.47-1.1-.59-1.65-.34l.08-.63c.04-.3-.28-.5-.54-.34l-.7.44c-.25.16-.21.54.08.63l.64.22c-.5.53-.52,1.36-.03,1.91.75.84,1.6,1.79,2.72,2.48,1,.62,2.1.92,3.13.89.41-.01.8-.08,1.18-.2,1.18-.38,2.22-1.3,2.84-2.53.46-.9.71-1.97.79-3.26.2-3.52-1.01-7.07-3.31-9.75Z"/>
    <path class="cls-8" d="m14.91,34.14c-1.63,1.63-1.63,4.28,0,5.91,1.63,1.63,4.28,1.63,5.91,0,1.63-1.63,1.63-4.28,0-5.91-1.63-1.63-4.28-1.63-5.91,0Zm5.21,2.33c-.24-.21-.55-.43-.83-.57-.18.25-.36.49-.54.74.02-.32.03-.65.05-.97-.27-.09-.59-.15-.87-.17.22-.15.47-.26.73-.32.12-.23.02-.73-.11-.96.26.19.57.58.73.86.35-.13.76-.11,1.09.06-.26.09-.51.23-.72.41.21.27.37.58.46.92Z"/>
    <path class="cls-3" d="m35.63,34.14c-1.63,1.63-1.63,4.28,0,5.91s4.28,1.63,5.91,0c1.63-1.63,1.63-4.28,0-5.91-1.63-1.63-4.28-1.63-5.91,0Zm2.33.69c-.21.24-.43.55-.57.83.25.18.49.36.74.54-.32-.02-.65-.03-.97-.05-.09.27-.15.59-.17.87-.15-.22-.26-.47-.32-.73-.23-.12-.73-.02-.96.11.19-.26.58-.57.86-.73-.13-.35-.11-.76.06-1.09.09.26.23.51.41.72.27-.21.58-.37.92-.46Z"/>
    <path class="cls-6" d="m48.86,7.49c-.05-.13-.12-.26-.23-.4-.1-.12-.23-.25-.39-.37-.16-.13-.34-.22-.56-.32-.22-.1-.45-.17-.71-.24-.52-.13-1.1-.16-1.73-.11,0,0-.01,0-.02,0,.4.3.72.72.9,1.19.06.17-.14.31-.28.19-.59-.55-1.34-.93-2.14-1.07-.79.24-1.6.61-2.36,1.11-.09.06-.18.12-.27.18.44.2.84.51,1.16.87.3.33.55.69.76,1.09.09.18-.12.36-.28.24-.42-.33-.86-.64-1.34-.87-.47-.22-1-.35-1.52-.34-.11.11-.23.21-.34.32-.57.58-1.1,1.23-1.56,1.95-.09.15-.18.29-.27.44.47-.07.95-.07,1.42,0,.69.11,1.36.38,1.94.77.2.14.08.46-.17.42-1.28-.23-2.61-.19-3.87.13-.59,1.34-.89,2.69-.97,3.93.99-.28,2.04-.32,3.05-.11.15.03.14.25,0,.27-1.08.17-2.12.59-3.03,1.2.03.41.09.8.17,1.16.24,1.11.72,2,1.25,2.5.25.25.54.42.8.49.26.08.5.07.73-.01.23-.08.43-.22.62-.39.19-.18.35-.38.52-.61.33-.46.65-1.02,1.01-1.67.34-.64.75-1.39,1.19-2.22.1-.2.23-.41.34-.62.13-.2.23-.42.36-.63.24-.43.51-.85.78-1.27.27-.42.54-.81.81-1.19.28-.37.54-.74.81-1.06.53-.67,1.02-1.23,1.44-1.72.46-.53.84-.96,1.12-1.28.09-.09.17-.19.26-.3.08-.09.16-.19.24-.28.16-.2.29-.41.37-.64.07-.23.08-.47-.02-.73Z"/>
    <circle class="cls-6" cx="49.35" cy="6.66" r=".41"/>
    <path class="cls-6" d="m48.69,5.83c0,.18-.14.32-.32.32s-.32-.14-.32-.32.14-.32.32-.32.32.14.32.32Z"/>
    <path class="cls-6" d="m20.31,12.93c-.03-.15-.07-.29-.12-.44-.43-1.23-1.38-2.27-2.57-2.8-.32-.14-.65-.24-.99-.31-.34.32-.78.54-1.25.61-.52.08-1.07-.03-1.52-.29-.41.28-.68.71-.44,1.28.18.43.62.7,1.06.86.44.15.91.22,1.35.37.03,0,.05.02.07.03-.22.62-.62,1.17-1.14,1.56-.36.26-.77.46-1.04.81-.23.29-.34.69-.29,1.06.05.37.25.72.56.95.21.15.47.25.73.21.35-.05.63-.35.77-.68.15-.33.19-.69.28-1.03.2-.82.64-1.59,1.23-2.19.14.14.28.28.39.44.24.32.41.69.66,1,.17.22.38.41.63.53.33-.81.91-1.51,1.65-1.99Z"/>
    <path class="cls-8" d="m36.29,9.07c-.06-.29-.07-.59-.14-.88-.17-.73-.69-1.38-1.38-1.69-.65-.3-1.43-.29-2.08.01-.59-.69-1.67-1.19-2.61-1.19-.34.22-.59.76-.54,1.16.55-.17,1.17-.18,1.72,0,.3.1.57.25.82.44-.44.4-.76.97-.84,1.56-.04.31-.02.62.1.92.37.94,1.3,1.54,1.52,2.55,1.12,1.21,1.92,2.72,2.3,4.32.12,0,.23,0,.35,0,.1-1.04.23-2.09.51-3.1.27-1,.68-1.97,1.29-2.8-.45-.36-.9-.71-1.02-1.31Z"/>
    <path class="cls-7" d="m46.34,19.54c-.25.11-.51.18-.71.36-.05-.21-.06-.5-.11-.71-.32.12-.63.27-.87.51-.06-.24-.12-.46-.18-.7-.22.17-.46.31-.68.47-.08-.21-.14-.42-.22-.64-.22.15-.44.27-.66.42-.06-.21-.1-.42-.15-.63-.11.06-.21.12-.32.18-.44.74-.88,1.48-1.32,2.22-.32.53-.64,1.07-1.11,1.47-.37.31-.84.53-1.32.54-.57,1.66-.94,3.4-1.1,5.09.01.38-.03.79-.02,1.18.15-.11.29-.23.44-.34-.03.35.03.7.19,1.02.19-.17.37-.33.56-.5.1.34.2.68.29,1.02.21-.18.42-.35.63-.53.1.28.2.56.31.84.25-.23.54-.4.86-.51.07.27.22.52.42.71.23-.18.46-.37.69-.55.06.24.19.48.35.67.18-.21.37-.41.55-.62.18.2.37.41.55.61.31-.4.59-.91.59-.91l2.29-9.31s.13-.92.03-1.36Z"/>
    <path class="cls-1" d="m32.13,29.02c-1.57.46-3.31.06-4.7-.79-1.31-.81-2.36-1.99-3.24-3.26,0,0-.01,0-.01,0l-.58.23c-.34.14-.58.46-.62.83l-.07.66-1.8-.19c-.18-.02-.35.11-.37.3l-.13,1.26c-.02.18.11.35.3.37l1.8.19-.07.66c-.04.37.13.73.43.94l.51.35c.42.28.91.44,1.41.44l8.75.04c.43,0,.79-.32.84-.75l.29-2.76c.01-.13,0-.26-.05-.37-.72.85-1.63,1.53-2.69,1.84Z"/>
    <g>
      <path class="cls-7" d="m10.74,12.41c-1.05-.87-1.68-1.92-1.72-2.75l-.74.89c-.55.66.07,2.08,1.38,3.16,1.31,1.08,2.82,1.43,3.36.77l.74-.89c-.81.11-1.96-.31-3.02-1.18Z"/>
      <path class="cls-7" d="m13,10.82c-.03-.27.03-.55.16-.8-.08-.08-.17-.15-.26-.22-1.31-1.08-2.82-1.43-3.36-.77-.55.66.07,2.08,1.38,3.16,1.31,1.08,2.82,1.43,3.36.77.16-.2.22-.46.19-.76-.33-.15-.69-.26-.98-.48-.28-.22-.46-.55-.5-.9Z"/>
    </g>
    <path class="cls-5" d="m29.68,11.09c-.4-.6-1.03-1.01-1.73-1.14l-.73-2.99h.02c.17-.04.27-.21.23-.38-.04-.17-.21-.27-.38-.23h-.02s-.14-.57-.14-.57h.02c.17-.04.27-.21.23-.38-.04-.17-.21-.27-.38-.23h-.02s-2.05.5-2.05.5h-.02c-.17.04-.27.21-.23.38s.21.27.38.23h.02s.14.57.14.57h-.02c-.17.04-.27.21-.23.38.04.17.21.27.38.23h.02s.73,2.98.73,2.98c-.38.29-.68.69-.85,1.14,1.38.26,2.7.8,3.86,1.58.06-.72.33-1.49.78-2.08Z"/>
    <path class="cls-6" d="m22.36,21.42c-.4-.03-.82-.07-1.18-.23-.25.17-.51.34-.76.51-.3.2-.59.41-.88.62l.04,2.47,2.03,1.34,1.01.1.06-.49c.04-.35.23-.67.5-.88l.22-3.36c-.34-.03-.69-.05-1.03-.08Zm-1.98.9c.08,0,.15.07.15.15s-.07.15-.15.15-.15-.07-.15-.15.07-.15.15-.15Zm0,2.69c-.16,0-.28-.13-.28-.28s.13-.28.28-.28.28.13.28.28-.13.28-.28.28Zm.15-1.3c-.13,0-.23-.1-.23-.23s.1-.23.23-.23.23.1.23.23-.1.23-.23.23Zm.41-1.16c0-.27.22-.49.49-.49s.49.22.49.49-.22.49-.49.49-.49-.22-.49-.49Zm.2,1.57c0-.12.1-.21.21-.21s.21.1.21.21-.1.21-.21.21-.21-.1-.21-.21Zm.57,1.48c-.14,0-.25-.11-.25-.25s.11-.25.25-.25.25.11.25.25-.11.25-.25.25Zm.64-.59c-.16,0-.28-.13-.28-.28s.13-.28.28-.28.28.13.28.28-.13.28-.28.28Zm.06-1.2c-.21,0-.39-.17-.39-.39s.17-.39.39-.39.39.17.39.39-.17.39-.39.39Zm.29-1.4c-.12,0-.21-.09-.21-.21s.09-.21.21-.21.21.09.21.21-.09.21-.21.21Z"/>
    <path class="cls-7" d="m40.01,5.89c-.25-.25-.59-.4-.94-.49-.28-.07-.57-.09-.86-.07-.8.06-2.38.6-2,1.68.1.28.34.51.62.59.32.1.65.01.98-.07-.01.14-.05.29-.09.42-.1.29-.23.57-.25.87-.02.3.12.65.41.74.3.1.63-.12.77-.4.14-.28.13-.62.11-.93-.02-.27-.03-.55-.05-.82.34.04.67.23,1.01.18.35-.06.63-.39.67-.74.05-.35-.11-.72-.37-.97Z"/>
    <path class="cls-1" d="m48.82,11.12c-.11-.07-.26-.08-.38-.04-.09.03-.21.1-.26.18.03-.15-.05-.32-.17-.41-.13-.09-.31-.09-.44,0-.13.08-.21.24-.19.4.02.16.19.43.31.53-.27.81-.71,1.5-1.21,2.19-.02.01-.05.03-.07.04-.71.41-1.51.7-2.07,1.32-.5.54-.75,1.34-.55,2.05.2.71.87,1.29,1.61,1.3.69,0,1.33-.47,1.66-1.08.33-.61.4-1.33.37-2.02-.02-.43-.04-.92-.12-1.36.38-.73.64-1.52.9-2.31.18.03.5.03.65-.08.12-.09.19-.24.17-.39-.01-.13-.09-.25-.2-.32Z"/>
    <g>
      <path class="cls-8" d="m37.42,23.33c-.6.76-1.04,1.93-1.16,3.15-.12,1.22.09,2.46.53,3.31.23-.94.36-2.08.48-3.21.11-1.14.2-2.28.15-3.25Z"/>
      <path class="cls-8" d="m35.52,25.63c-.07,1.25.5,3.06,1.27,4.05.07-1.25-.5-3.06-1.27-4.05Z"/>
    </g>
    <g>
      <g>
        <path class="cls-4" d="m17.11,16.11c.54,0,.54-.84,0-.84s-.54.84,0,.84h0Z"/>
        <path class="cls-4" d="m16.95,14.82c.32,0,.32-.5,0-.5s-.32.5,0,.5h0Z"/>
        <circle class="cls-4" cx="12.48" cy="16.07" r=".57"/>
        <path class="cls-4" d="m10.85,15.97c.54,0,.54-.84,0-.84s-.54.84,0,.84h0Z"/>
        <path class="cls-4" d="m11.06,16.98c.32,0,.32-.5,0-.5s-.32.5,0,.5h0Z"/>
        <path class="cls-4" d="m9.61,16.93c.54,0,.54-.84,0-.84s-.54.84,0,.84h0Z"/>
        <path class="cls-4" d="m10.34,18.02c.32,0,.32-.5,0-.5s-.32.5,0,.5h0Z"/>
        <path class="cls-4" d="m9.49,15.09c.32,0,.32-.5,0-.5s-.32.5,0,.5h0Z"/>
        <path class="cls-4" d="m7.74,9.69c.54,0,.54-.84,0-.84s-.54.84,0,.84h0Z"/>
        <path class="cls-4" d="m7.35,8.07c.32,0,.32-.5,0-.5s-.32.5,0,.5h0Z"/>
        <path class="cls-4" d="m8.98,8.08c0,.27-.22.49-.49.49s-.49-.22-.49-.49.22-.49.49-.49.49.22.49.49Z"/>
        <path class="cls-4" d="m8.82,9.34c.32,0,.32-.5,0-.5s-.32.5,0,.5h0Z"/>
        <g>
          <path class="cls-4" d="m23.71,10.74c.76,0,.76-1.17,0-1.17s-.76,1.17,0,1.17h0Z"/>
          <path class="cls-4" d="m24.85,9.79c.54,0,.54-.84,0-.84s-.54.84,0,.84h0Z"/>
          <path class="cls-4" d="m24.41,11.42c.32,0,.32-.5,0-.5s-.32.5,0,.5h0Z"/>
          <path class="cls-4" d="m29.29,9.64c.76,0,.76-1.17,0-1.17s-.76,1.17,0,1.17h0Z"/>
          <path class="cls-4" d="m30.34,8.05c.54,0,.54-.84,0-.84s-.54.84,0,.84h0Z"/>
          <path class="cls-4" d="m28.74,7.52c.32,0,.32-.5,0-.5s-.32.5,0,.5h0Z"/>
          <path class="cls-4" d="m23.36,8.07c.54,0,.54-.84,0-.84s-.54.84,0,.84h0Z"/>
          <path class="cls-4" d="m18.33,6.28c.54,0,.54-.84,0-.84s-.54.84,0,.84h0Z"/>
          <path class="cls-4" d="m19.73,6c.32,0,.32-.5,0-.5s-.32.5,0,.5h0Z"/>
          <path class="cls-4" d="m28.5,6.25c.54,0,.54-.84,0-.84s-.54.84,0,.84h0Z"/>
        </g>
        <path class="cls-4" d="m41.51,6.43c.76,0,.76-1.17,0-1.17s-.76,1.17,0,1.17h0Z"/>
        <path class="cls-4" d="m35.18,6.14c.54,0,.54-.84,0-.84s-.54.84,0,.84h0Z"/>
        <path class="cls-4" d="m20.42,30.2c.76,0,.76-1.17,0-1.17s-.76,1.17,0,1.17h0Z"/>
        <path class="cls-4" d="m22.02,30.67c.54,0,.54-.84,0-.84s-.54.84,0,.84h0Z"/>
        <path class="cls-4" d="m21.01,31.04c.32,0,.32-.5,0-.5s-.32.5,0,.5h0Z"/>
        <path class="cls-4" d="m21.63,29.47c.32,0,.32-.5,0-.5s-.32.5,0,.5h0Z"/>
        <path class="cls-4" d="m19.9,26.63c.54,0,.54-.84,0-.84s-.54.84,0,.84h0Z"/>
        <path class="cls-4" d="m17.91,18.17c.32,0,.32-.5,0-.5s-.32.5,0,.5h0Z"/>
        <path class="cls-4" d="m30.85,10.58c.32,0,.32-.5,0-.5s-.32.5,0,.5h0Z"/>
        <path class="cls-4" d="m45.88,13.52c.54,0,.54-.84,0-.84s-.54.84,0,.84h0Z"/>
        <path class="cls-4" d="m46.65,12.47c.32,0,.32-.5,0-.5s-.32.5,0,.5h0Z"/>
        <path class="cls-4" d="m48.66,10.55c.54,0,.54-.84,0-.84s-.54.84,0,.84h0Z"/>
        <path class="cls-4" d="m49.01,9.44c.32,0,.32-.5,0-.5s-.32.5,0,.5h0Z"/>
      </g>
      <path class="cls-4" d="m35.55,30.28c.54,0,.54-.84,0-.84s-.54.84,0,.84h0Z"/>
      <path class="cls-4" d="m37.48,31.04c.76,0,.76-1.17,0-1.17s-.76,1.17,0,1.17h0Z"/>
      <path class="cls-4" d="m36.14,30.89c.32,0,.32-.5,0-.5s-.32.5,0,.5h0Z"/>
      <path class="cls-4" d="m36.75,23.03c.54,0,.54-.84,0-.84s-.54.84,0,.84h0Z"/>
      <path class="cls-4" d="m36.41,21.79c.32,0,.32-.5,0-.5s-.32.5,0,.5h0Z"/>
      <path class="cls-4" d="m36.23,24.14c.32,0,.32-.5,0-.5s-.32.5,0,.5h0Z"/>
    </g>
    <path class="cls-7" d="m12.12,3.15c.01-.52-.37-1-.83-1.23-.47-.23-1.01-.27-1.53-.25-.83.03-1.66.18-2.45.44-1.38.45-2.65,1.24-3.67,2.29-.05-.12-.12-.23-.2-.33-.13.34-.4.61-.59.92-.2.31-.32.71-.15,1.04,0,.02.02.03.04.05-.17.14-.37.24-.59.27-.39.05-.8-.11-1.05-.42-.18.18-.27.43-.25.68.39.24.9.29,1.35.18.3-.07.57-.23.8-.44.33.24.81.33,1.18.17.21-.09.4-.24.59-.37.19-.13.43-.23.66-.22-.11-.11-.23-.2-.37-.27.01,0,.03-.02.04-.03,1.11-.71,2.43-1.08,3.74-1.08.67,0,1.34.1,1.99-.05.65-.16,1.28-.67,1.29-1.33Z"/>
    <path class="cls-6" d="m14.46,3.35c.03-.37-.28-.67-.57-.9C12.3,1.2,10.37.38,8.36.11,7.66,0,6.96-.02,6.25.01c-1.15.06-2.41.25-3.47.72-.55.24-.86.89-.82,1.49-.69.21-1.35.5-1.96.88,0,.43.12.92.43,1.21.37-.67.99-1.21,1.69-1.52,0,.02.02.03.03.05.26.43.72.71,1.22.84,1.61-1.71,3.99-2.68,6.34-2.55.56.03,1.12.12,1.63.36.51.24.96.64,1.17,1.16.16.39.17.85.01,1.24.06.01.13.03.19.04.34.08.69.16,1.04.1.34-.06.68-.32.71-.67Z"/>
  </g>
</svg>