<?xml version="1.0" encoding="UTF-8"?>
<svg id="Capa_1" data-name="Capa 1" xmlns="http://www.w3.org/2000/svg" viewBox="0 0 238.73 199.93">
  <defs>
    <style>
      .cls-1 {
        fill: #f2906c;
      }

      .cls-1, .cls-2, .cls-3, .cls-4, .cls-5, .cls-6, .cls-7, .cls-8, .cls-9 {
        stroke-width: 0px;
      }

      .cls-2 {
        fill: #f4a7ae;
      }

      .cls-3 {
        fill: #ee727e;
      }

      .cls-4 {
        fill: #fff;
      }

      .cls-5 {
        fill: #bc4164;
      }

      .cls-6 {
        fill: #34bef0;
      }

      .cls-7 {
        fill: #f9b96c;
      }

      .cls-8 {
        fill: #8a82bd;
      }

      .cls-9 {
        fill: #a7c049;
      }
    </style>
  </defs>
  <path class="cls-4" d="m238.73,48.42c0-2.27-.81-4.35-2.16-5.96.71-1.39,1.11-2.96,1.11-4.6,0-4.34-2.81-8.12-6.74-9.51-1.81-2.38-4.66-3.86-7.72-3.86-2.56,0-4.94.99-6.7,2.69-1.53-.23-3.16-.35-4.83-.35-.96,0-1.94.04-3,.11-.04,0-.33.04-.39.05-1.43.17-2.75.7-3.87,1.5-.15-.03-.28-.06-.42-.08-.49-.08-.98-.13-1.48-.13-.25,0-.5,0-.73.03-.28-.43-.58-.84-.92-1.24-2.05-2.38-4.94-3.69-8.16-3.69-2.23,0-4.3.63-6.05,1.81-.92-.38-1.88-.68-2.89-.92-1.56-.38-3.18-.56-4.82-.56-.5,0-1,.02-1.5.06-1.91.13-4.48.64-7.02,1.67-1.67-1.2-3.71-1.87-5.85-1.87-3,0-5.71,1.23-7.62,3.47-.26.3-.5.62-.72.96l-.53.11c-4.04-2.82-9.03-4.46-13.77-4.46-1.34,0-2.64.33-3.81.94-1.03-.35-2.12-.53-3.23-.53-.79,0-1.58.09-2.33.28-1.48-.88-3.17-1.36-4.91-1.36-.78,0-1.55.09-2.36.29l-9.2,2.24c-1.9.47-3.58,1.47-4.85,2.89-1.5-.15-3.06-.21-4.66-.21-1.02,0-2.06.03-3.13.08-1.7-2.36-4.45-3.83-7.55-3.83-.92,0-1.81.13-2.66.39-1.12-.42-2.31-.63-3.55-.63-2.17,0-4.23.7-5.91,1.92-1-.56-2.05-1.01-3.15-1.36.06-.31.09-.63.12-.94.31-4.17-1.59-7.92-5.66-11.12C66.85,6.17,56.97,1.97,46.54.54c-2.63-.36-5.32-.54-8-.54-.96,0-1.94.02-2.9.07-7.15.35-13.32,1.65-18.37,3.87-3.42,1.51-6.11,4.43-7.52,8.04-2.02.87-3.97,1.89-5.83,3.04C1.48,16.52-.03,19.24,0,22.1c.03,4.43,1.61,8.5,4.32,11.18l.03.11c-.52,1.56-.72,3.23-.57,4.92.23,2.56,1.66,4.9,3.83,6.27,2.4,1.5,5.28,2.3,8.3,2.3,1.35,0,2.69-.16,3.99-.47.86-.21,1.71-.49,2.53-.83.83.15,1.66.22,2.5.22,1.79,0,3.5-.34,5.09-1.02.58-.25,1.11-.53,1.59-.81.14,1.28.52,2.51,1.15,3.61-.12.61-.17,1.25-.17,1.87,0,3,1.26,5.72,3.35,7.58-.29,4.57,1.68,9.63,5.59,14.27-.29.93-.46,1.91-.46,2.9,0,1.21.22,2.38.64,3.46-.52,1.25-.8,2.61-.8,4,0,3.42,1.71,6.53,4.39,8.38.38,1.23,1,2.38,1.84,3.36.56.64,1.19,1.2,1.89,1.66l-2.28,5.62c-.17.45-.32.92-.42,1.4-.02.12-.05.24-.06.37-.08.5-.12,1.01-.11,1.48,0,.08,0,.2,0,.3.02.35.06.72.14,1.09.02.14.05.28.07.4l10.27,42.56c.9,3.72,4.2,6.32,8.03,6.32.35,0,.71-.03,1.06-.07l2.93-.38c-6.2,6.2-8.99,14.89-7.43,23.82.64,3.66,2.08,7.17,4.2,10.23,5.44,7.85,14.17,12.13,23.46,11.71,6.09-.28,11.96-2.66,16.52-6.71,4.82-4.28,7.85-9.95,8.76-16.16.19-1.28.28-2.6.28-3.93,0-.47-.01-.94-.04-1.4-.11-2.07.14-4.17.93-6.09.55-1.33,1.24-2.59,2.04-3.76,3.29-4.77,8.87-7.45,14.67-7.42,1.44,0,2.79.01,4.07.02,5.83.03,11.4,2.79,14.65,7.64.03.05.07.1.1.16,1.64,2.5,2.37,5.5,2.11,8.48-.07.78-.1,1.57-.1,2.36,0,1.89.19,3.75.58,5.56,1.05,5.05,3.55,9.68,7.28,13.4,5.26,5.25,12.3,8.06,19.76,7.85,6.1-.17,12.02-2.46,16.64-6.43,11.86-10.19,12.46-28.08,1.81-39.05.74.21,1.51.33,2.3.33.1,0,.21,0,.32,0,2.46-.1,4.72-1.28,6.23-3.22,1.69-2.21,3.12-4.76,3.28-5.05.36-.64.62-1.33.8-2.05l10.18-41.37c.06-.28.12-.56.16-.84.28-1.98.64-5.68.11-8.55.87-1.01,1.64-2.1,2.28-3.28,2-3.71,2.86-8.05,2.61-13.28v-.31c-.06-1.22-.13-2.57-.27-3.97.7-1.54,1.28-3.05,1.78-4.41.52-.25,1.02-.55,1.49-.89,2.93-2.13,4.5-5.69,4.13-9.29-.06-.56-.17-1.12-.32-1.66l.06-.14c2.78-1.62,4.62-4.63,4.62-8.02Z"/>
  <path class="cls-4" d="m87.64,150.87c-5.94,0-11.52,2.31-15.72,6.51s-6.51,9.78-6.51,15.72,2.31,11.52,6.51,15.72c4.2,4.2,9.78,6.51,15.72,6.51s11.52-2.31,15.72-6.51c4.2-4.2,6.51-9.78,6.51-15.72s-2.31-11.52-6.51-15.72-9.78-6.51-15.72-6.51Z"/>
  <path class="cls-4" d="m179.72,150.87c-5.94,0-11.52,2.31-15.72,6.51s-6.51,9.78-6.51,15.72,2.31,11.52,6.51,15.72c4.2,4.2,9.78,6.51,15.72,6.51s11.52-2.31,15.72-6.51c8.67-8.67,8.67-22.77,0-31.44-4.2-4.2-9.78-6.51-15.72-6.51Z"/>
  <path class="cls-4" d="m234.14,48.42c0-2.6-2.12-4.72-4.72-4.72-.01,0-.02,0-.03,0,.01-.21.02-.42,0-.64,2.15-.76,3.69-2.8,3.69-5.2,0-2.91-2.26-5.29-5.11-5.49-.73-1.92-2.59-3.3-4.76-3.3s-3.97,1.32-4.72,3.19c-.19-.05-.37-.1-.58-.15-1.88-.46-3.98-.7-6.23-.7-.83,0-1.7.03-2.67.1-.05,0-.12.01-.18.02-1.27.15-2.35.94-2.88,2.07-.91-.29-1.84-.52-2.77-.69-.22-.04-.43-.06-.65-.06-.36,0-.72.05-1.07.16-.87.26-1.73.56-2.58.88-.07-1.43-.58-2.79-1.49-3.84-1.16-1.35-2.82-2.09-4.67-2.09s-3.51.74-4.67,2.1c-.21.25-.4.52-.57.8-1.32-.98-2.92-1.69-4.76-2.13-1.22-.29-2.48-.43-3.76-.43-.39,0-.79.01-1.18.04-1.96.14-5.51.9-8.35,2.75-.91-1.76-2.71-2.94-4.85-2.94-1.64,0-3.1.66-4.13,1.86-.61.71-1.02,1.58-1.21,2.52-.32-.02-.65-.05-.97-.05-1.27,0-2.54.16-3.77.48-3.39-2.89-8.14-4.73-12.55-4.73-.71,0-1.4.21-1.99.59-.51.33-.97.75-1.41,1.21-.96-.86-2.23-1.39-3.65-1.39-1.19,0-2.28.37-3.17,1-.93-1.28-2.42-2.09-4.08-2.09-.4,0-.81.05-1.27.16l-9.2,2.24c-1.31.32-2.42,1.13-3.12,2.28-.21.34-.36.71-.48,1.08-2.13-.36-4.48-.56-7-.56-1.97,0-3.98.12-6,.32-.34-2.33-2.26-4.07-4.68-4.07-1.07,0-2.03.35-2.81.92-.93-.73-2.1-1.17-3.4-1.17-2.41,0-4.4,1.5-5.15,3.65-2.41-2.48-5.7-3.9-9.19-3.92,0,0-.93,0-2.22,0,1.74-1.19,2.89-3.01,3.05-5.05.3-3.85-2.87-6.34-3.92-7.16-7.63-6-16.75-9.87-26.37-11.19-2.43-.33-4.91-.5-7.38-.5-.89,0-1.79.02-2.67.07-6.58.32-12.21,1.5-16.74,3.49-2.87,1.27-4.95,4.06-5.62,7.28-2.51.93-4.92,2.1-7.18,3.5-1.09.67-1.75,1.87-1.74,3.15.02,3.24,1.12,6.15,3,7.99.2.2.43.36.67.51.24.98.64,1.89,1.2,2.69-.86,1.36-1.26,2.98-1.11,4.64.1,1.14.73,2.17,1.7,2.78,1.67,1.05,3.7,1.6,5.87,1.6.99,0,1.97-.12,2.92-.34,1.07-.26,2.11-.67,3.07-1.24.98.33,2,.5,3.04.5,1.16,0,2.27-.22,3.28-.65,1.06-.46,1.93-1.08,2.63-1.57.2-.14.39-.28.59-.42.43-.29.74-.37.8-.37.03,0,.07,0,.1,0,.64,0,1.25-.18,1.79-.48.55,1.19,1.47,2.2,2.67,2.88-.4.7-.64,1.51-.64,2.4,0,1.51.68,2.82,1.73,3.69-.45.81-.71,1.75-.71,2.76,0,2.55,1.63,4.64,3.91,5.31-1.77,4.38.61,10.62,6.13,15.89-.95.87-1.56,2.12-1.56,3.55s.56,2.61,1.47,3.47c-.1.1-.2.2-.29.31-.86,1-1.33,2.31-1.33,3.67,0,2.59,1.67,4.7,4,5.33,0,.09-.02.17-.02.26,0,1.17.41,2.29,1.16,3.16.89,1.03,2.2,1.63,3.59,1.63.36,0,.7-.04,1.03-.11l-4.25,10.49c-.08.21-.14.42-.19.64-.01.05-.02.1-.03.14-.04.22-.06.44-.05.67,0,.03,0,.06,0,.09,0,.21.04.42.08.63,0,.03,0,.05.01.08l10.27,42.56c.4,1.67,1.89,2.81,3.56,2.81.16,0,.32-.01.47-.03l29.3-3.8c.65-.08,1.24-.34,1.73-.72.25.13.51.24.78.33.34,2.33,2.26,4.06,4.68,4.06,1.47,0,2.75-.66,3.62-1.69.28.04.56.07.85.07,1.57,0,2.95-.64,3.94-1.67l.92.63c2.47,1.68,5.35,2.58,8.34,2.6,0,0,38.9.18,38.91.18,2.68,0,5.05-1.43,6.34-3.6.19.43.42.84.73,1.19.89,1.03,2.2,1.63,3.59,1.63.81,0,1.56-.21,2.22-.56,1.03.77,2.31,1.22,3.74,1.22,2.28,0,4.19-1.13,5.26-2.89.23.12.46.23.71.31.35.1.71.16,1.06.16.39,0,.77-.06,1.13-.18.5.72,1.26,1.25,2.13,1.46.29.07.58.1.87.1.88,0,1.74-.32,2.41-.91.25.28.51.55.79.81.7.65,1.6.98,2.49.98.7,0,1.4-.2,2.01-.6.69.71,1.63,1.11,2.63,1.11h0c.92,0,1.81-.35,2.48-.96.67.6,1.54.93,2.44.93.05,0,.1,0,.15,0,1.09-.04,2.1-.57,2.77-1.43,1.52-1.98,2.86-4.38,2.92-4.48.16-.29.28-.59.36-.91l10.17-41.36c.03-.12.05-.25.07-.38.15-1.11.61-4.9.11-7.28-.14-.67-.48-1.27-.95-1.76,1.49-1.13,2.79-2.6,3.73-4.34,1.6-2.95,2.28-6.51,2.07-10.89v-.31c-.09-1.55-.16-3.26-.38-4.96,1.13-2.36,2.04-4.78,2.88-7.25.92-.17,1.72-.5,2.38-.99,1.61-1.17,2.47-3.12,2.26-5.1-.09-.81-.36-1.59-.77-2.27.61-.89.97-1.98.97-3.17,0-.07,0-.13,0-.2,2.33-.28,4.16-2.26,4.16-4.67Z"/>
  <g>
    <path class="cls-7" d="m230.47,48.42c0,.58-.47,1.05-1.05,1.05s-1.05-.47-1.05-1.05.47-1.05,1.05-1.05,1.05.47,1.05,1.05Z"/>
    <g>
      <g>
        <polygon class="cls-6" points="93.98 142.54 64.68 146.33 54.42 103.77 93.06 98.77 93.98 142.54"/>
        <polygon class="cls-6" points="93.06 98.77 54.42 103.77 59.38 91.52 85.14 88.18 93.06 98.77"/>
        <rect class="cls-6" x="58.92" y="84.45" width="25.98" height="5.42" transform="translate(-10.6 9.96) rotate(-7.38)"/>
      </g>
      <path class="cls-5" d="m150.07,102.55c1.95-23.7-20.89-47.61-45.06-38.55-6.81,2.55-12.45,8.48-13.91,15.7-1.37,6.76,1.31,14.33,6.97,18.27,9.63,6.7,24.11,1.93,33.58,8.85,3.52,2.57,6.62,6.81,10.97,6.45,2.36-.19,4.43-1.85,5.62-3.9,1.19-2.05,1.63-4.45,1.83-6.82Zm-13.93-1.84c-3.13-.64-5.15-3.69-4.51-6.82.64-3.13,3.69-5.15,6.82-4.51,3.13.64,5.15,3.69,4.51,6.82-.64,3.13-3.69,5.15-6.82,4.51Z"/>
      <g>
        <path class="cls-1" d="m75.37,32.17l-10.55-.03c-.9,1.5-2.02,2.86-3.32,4.04-.06-1.35.01-2.71.18-4.05l-12.07-.04c-.34.84-.69,1.69-1.03,2.53-.26-.83-.43-1.68-.54-2.53l-7.95-.02c-3.2,0-4.01,4.43-1.02,5.56l13.1,4.92c.67-1.81,1.7-3.48,3-4.9-.22,1.93-.43,3.86-.65,5.78l12.57,4.72c.96-2.35,1.91-4.69,2.87-7.04-.2,2.63-.4,5.26-.61,7.89l2.72,1.02c5.38,2.02,11.27-1.32,12.31-6.97,1.03-5.65-3.3-10.86-9.04-10.88Z"/>
        <g>
          <path class="cls-1" d="m113.56,48.38h0c-8.26-4.96-22.63-7.59-32.11-5.88h0,0c8.26,4.96,22.63,7.59,32.11,5.88Z"/>
          <path class="cls-1" d="m109.62,59.01h0c-6.06-7.49-18.67-14.88-28.16-16.51h0,0c6.06,7.49,18.67,14.88,28.16,16.51Z"/>
          <path class="cls-1" d="m113.64,37.05h0c-8.32,4.85-22.73,7.3-32.19,5.46h0,0c8.32-4.85,22.73-7.3,32.19-5.46Z"/>
        </g>
      </g>
      <path class="cls-2" d="m152.35,64.09c-1.59-1.85-4.01-2.54-6.23-2l.27-2.09c.17-1.31-1.27-2.23-2.39-1.53l-3.09,1.94c-1.12.7-.92,2.4.34,2.82l1.83.61c-2.23,2.3-2.37,5.97-.24,8.45,8.12,9.44,12.38,21.99,11.69,34.43-.22,3.98-.93,7.09-2.16,9.51-1.26,2.47-3.23,4.34-5.28,5-2.42.78-5.69.12-8.73-1.76-3.4-2.1-6.4-5.46-9.31-8.71-1.89-2.11-4.87-2.64-7.31-1.51l.36-2.79c.17-1.31-1.27-2.23-2.39-1.53l-3.09,1.94c-1.12.7-.92,2.4.34,2.82l2.86.96c-2.22,2.35-2.31,6.04-.12,8.49,3.34,3.73,7.13,7.96,12.07,11.02,4.46,2.75,9.32,4.1,13.91,3.93,1.8-.07,3.57-.36,5.25-.9,5.25-1.68,9.85-5.79,12.64-11.27,2.03-4,3.18-8.74,3.5-14.49.87-15.64-4.49-31.43-14.7-43.31Z"/>
      <path class="cls-9" d="m74.51,159.98c-7.25,7.25-7.25,19,0,26.25,7.25,7.25,19,7.25,26.25,0,7.25-7.25,7.25-19,0-26.25-7.25-7.25-19-7.25-26.25,0Zm23.17,10.35c-1.05-.91-2.44-1.91-3.69-2.54-.8,1.09-1.6,2.19-2.39,3.28.07-1.44.15-2.87.22-4.31-1.19-.4-2.62-.66-3.87-.74.98-.68,2.09-1.16,3.25-1.42.56-1.03.1-3.23-.47-4.25,1.14.84,2.52,2.59,3.23,3.82,1.56-.58,3.37-.48,4.86.27-1.14.4-2.28,1.02-3.2,1.81.94,1.21,1.64,2.6,2.05,4.07Z"/>
      <path class="cls-3" d="m166.59,159.98c-7.25,7.25-7.25,19,0,26.25,7.25,7.25,19,7.25,26.25,0,7.25-7.25,7.25-19,0-26.25-7.25-7.25-19-7.25-26.25,0Zm10.35,3.08c-.91,1.05-1.91,2.44-2.54,3.69,1.09.8,2.19,1.6,3.28,2.39-1.44-.07-2.87-.15-4.31-.22-.4,1.19-.66,2.62-.74,3.87-.68-.98-1.16-2.09-1.42-3.25-1.03-.56-3.23-.1-4.25.47.84-1.14,2.59-2.52,3.82-3.23-.58-1.56-.48-3.37.27-4.86.4,1.14,1.02,2.28,1.81,3.2,1.21-.94,2.6-1.64,4.07-2.05Z"/>
      <path class="cls-7" d="m225.4,41.56c-.22-.57-.55-1.17-1.01-1.77-.45-.55-1.03-1.1-1.75-1.64-.72-.57-1.53-.99-2.48-1.43-.96-.46-1.99-.77-3.13-1.05-2.3-.57-4.88-.7-7.69-.51-.02,0-.05,0-.07,0,1.78,1.34,3.19,3.2,3.99,5.28.29.75-.64,1.39-1.23.84-2.62-2.46-5.97-4.13-9.5-4.77-3.52,1.07-7.09,2.7-10.49,4.92-.4.25-.79.53-1.18.8,1.95.89,3.73,2.27,5.17,3.85,1.33,1.45,2.46,3.08,3.37,4.83.41.8-.55,1.6-1.25,1.05-1.87-1.48-3.81-2.85-5.97-3.85-2.11-.98-4.46-1.56-6.76-1.5-.51.47-1.01.94-1.51,1.42-2.52,2.58-4.9,5.48-6.95,8.67-.42.65-.81,1.31-1.19,1.97,2.1-.3,4.23-.31,6.32.02,3.09.49,6.05,1.68,8.64,3.43.91.62.34,2.06-.74,1.86-5.69-1.03-11.59-.83-17.2.56-2.6,5.97-3.95,11.96-4.3,17.48,4.38-1.26,9.08-1.43,13.53-.48.67.14.63,1.11-.04,1.22-4.8.78-9.42,2.62-13.46,5.33.14,1.81.38,3.53.74,5.15,1.08,4.95,3.21,8.87,5.57,11.12,1.13,1.13,2.4,1.85,3.54,2.19,1.15.34,2.23.29,3.24-.05,1.01-.35,1.92-.97,2.75-1.75.84-.78,1.55-1.68,2.33-2.73,1.47-2.05,2.89-4.52,4.49-7.43,1.52-2.83,3.32-6.17,5.31-9.86.46-.91,1.03-1.81,1.51-2.75.57-.91,1.03-1.88,1.62-2.8,1.06-1.91,2.28-3.76,3.45-5.66,1.2-1.87,2.42-3.6,3.6-5.3,1.23-1.63,2.4-3.27,3.59-4.72,2.34-2.98,4.53-5.45,6.4-7.64,2.06-2.35,3.75-4.28,4.98-5.68.38-.42.77-.86,1.16-1.31.36-.4.73-.82,1.07-1.26.69-.87,1.3-1.8,1.63-2.82.33-1.02.35-2.09-.09-3.24Z"/>
      <circle class="cls-7" cx="227.58" cy="37.87" r="1.84"/>
      <path class="cls-7" d="m224.64,34.17c0,.79-.64,1.43-1.43,1.43s-1.43-.64-1.43-1.43.64-1.43,1.43-1.43,1.43.64,1.43,1.43Z"/>
      <path class="cls-7" d="m98.52,65.72c-.14-.66-.33-1.31-.55-1.94-1.91-5.46-6.14-10.07-11.42-12.43-1.41-.63-2.89-1.08-4.4-1.39-1.52,1.43-3.48,2.41-5.55,2.73-2.32.36-4.74-.13-6.77-1.3-1.83,1.23-3.01,3.17-1.93,5.69.82,1.91,2.75,3.12,4.71,3.81,1.96.69,4.05.96,6.01,1.66.11.04.22.09.33.13-.96,2.75-2.74,5.22-5.08,6.95-1.58,1.17-3.43,2.04-4.64,3.58-1.03,1.31-1.51,3.05-1.29,4.7.22,1.65,1.13,3.21,2.47,4.2.92.69,2.09,1.12,3.22.95,1.57-.23,2.79-1.56,3.43-3,.65-1.45.85-3.05,1.23-4.59.89-3.66,2.83-7.05,5.48-9.73.64.61,1.23,1.26,1.75,1.98,1.05,1.44,1.83,3.06,2.91,4.46.75.97,1.69,1.84,2.78,2.36,1.48-3.58,4.06-6.71,7.31-8.82Z"/>
      <path class="cls-9" d="m169.55,48.55c-.26-1.3-.32-2.63-.61-3.92-.75-3.26-3.08-6.11-6.11-7.51-2.9-1.33-6.37-1.29-9.25.06-2.62-3.08-7.44-5.3-11.6-5.28-1.52.99-2.61,3.36-2.39,5.15,2.43-.75,5.21-.81,7.62,0,1.31.44,2.54,1.12,3.64,1.97-1.94,1.8-3.39,4.33-3.75,6.91-.19,1.38-.08,2.77.44,4.08,1.65,4.16,5.79,6.84,6.77,11.35,4.97,5.39,8.53,12.07,10.22,19.2.51.04,1.03.04,1.54.02.45-4.64,1.04-9.28,2.26-13.78,1.2-4.44,3.03-8.75,5.74-12.44-2.01-1.59-4-3.16-4.53-5.81Z"/>
      <path class="cls-8" d="m214.21,95.09c-1.11.48-2.25.8-3.17,1.59-.21-.93-.26-2.22-.47-3.15-1.41.52-2.8,1.2-3.88,2.26-.29-1.05-.52-2.06-.8-3.11-.98.75-2.05,1.36-3.03,2.11-.36-.95-.61-1.88-.97-2.82-.96.68-1.97,1.19-2.93,1.87-.25-.93-.42-1.86-.67-2.8-.47.25-.95.51-1.42.8-1.96,3.28-3.91,6.57-5.87,9.85-1.4,2.36-2.84,4.76-4.93,6.54-1.63,1.4-3.75,2.37-5.86,2.38-2.52,7.38-4.17,15.11-4.87,22.63.05,1.71-.12,3.53-.08,5.24.65-.5,1.3-1,1.95-1.51-.15,1.55.15,3.13.85,4.52.83-.74,1.67-1.48,2.5-2.22.44,1.5.87,3.01,1.31,4.51.93-.78,1.85-1.57,2.78-2.35.45,1.25.9,2.49,1.36,3.74,1.1-1.01,2.4-1.79,3.8-2.28.31,1.2.98,2.31,1.89,3.16,1.03-.82,2.05-1.63,3.08-2.45.28,1.07.82,2.13,1.56,2.96.82-.92,1.64-1.84,2.46-2.76.82.91,1.64,1.82,2.46,2.73,1.38-1.79,2.62-4.03,2.62-4.03l10.17-41.36s.56-4.08.15-6.03Z"/>
      <path class="cls-1" d="m151.04,137.24c-6.97,2.06-14.69.28-20.88-3.53-5.84-3.59-10.48-8.84-14.41-14.48-.02,0-.04.02-.07.02l-2.56,1.04c-1.52.62-2.58,2.03-2.76,3.67l-.31,2.95-8.02-.85c-.82-.09-1.55.51-1.64,1.32l-.6,5.61c-.09.82.51,1.55,1.32,1.64l8.02.85-.31,2.95c-.17,1.64.57,3.24,1.92,4.17l2.28,1.56c1.85,1.27,4.04,1.95,6.29,1.96l38.87.18c1.91,0,3.52-1.43,3.72-3.33l1.31-12.27c.06-.58-.03-1.14-.22-1.66-3.21,3.78-7.25,6.8-11.97,8.2Z"/>
      <g>
        <path class="cls-8" d="m56,63.43c-4.68-3.88-7.48-8.55-7.66-12.2l-3.29,3.97c-2.44,2.94.3,9.24,6.12,14.06,5.82,4.82,12.51,6.34,14.95,3.4l3.29-3.97c-3.62.5-8.73-1.38-13.41-5.26Z"/>
        <path class="cls-8" d="m66.04,56.35c-.13-1.22.13-2.47.72-3.54-.37-.34-.74-.67-1.14-1-5.82-4.82-12.51-6.34-14.95-3.4-2.44,2.94.3,9.24,6.12,14.06,5.82,4.82,12.51,6.34,14.95,3.4.72-.87.98-2.03.85-3.36-1.45-.68-3.08-1.16-4.34-2.15-1.23-.97-2.05-2.45-2.22-4.01Z"/>
      </g>
      <path class="cls-6" d="m140.15,57.56c-1.77-2.67-4.57-4.5-7.7-5.05l-3.24-13.27.07-.02c.74-.18,1.2-.93,1.02-1.67-.18-.74-.93-1.2-1.67-1.02l-.07.02-.63-2.57.07-.02c.74-.18,1.2-.93,1.02-1.67-.18-.74-.93-1.2-1.67-1.02l-.07.02-9.13,2.23-.07.02c-.74.18-1.2.93-1.02,1.67s.93,1.2,1.67,1.02l.07-.02.63,2.57-.07.02c-.74.18-1.2.93-1.02,1.67.18.74.93,1.2,1.67,1.02l.07-.02,3.24,13.27c-1.71,1.31-3.01,3.06-3.78,5.05,6.11,1.17,11.99,3.57,17.17,7.03.26-3.18,1.48-6.61,3.44-9.25Z"/>
      <path class="cls-7" d="m107.62,103.47c-1.78-.14-3.65-.31-5.27-1-1.13.74-2.26,1.49-3.37,2.26-1.32.9-2.62,1.83-3.92,2.77l.17,10.98,9.01,5.95,4.47.43.28-2.19c.2-1.56,1.01-2.96,2.23-3.92l.96-14.92c-1.52-.12-3.05-.24-4.57-.36Zm-8.79,4.02c.38,0,.68.31.68.68s-.31.68-.68.68-.68-.31-.68-.68.31-.68.68-.68Zm.02,11.97c-.69,0-1.26-.56-1.26-1.26s.56-1.26,1.26-1.26,1.26.56,1.26,1.26-.56,1.26-1.26,1.26Zm.67-5.79c-.57,0-1.04-.46-1.04-1.04s.46-1.04,1.04-1.04,1.04.46,1.04,1.04-.46,1.04-1.04,1.04Zm1.8-5.15c0-1.21.98-2.18,2.18-2.18s2.18.98,2.18,2.18-.98,2.18-2.18,2.18-2.18-.98-2.18-2.18Zm.88,6.97c0-.53.43-.95.95-.95s.95.43.95.95-.43.95-.95.95-.95-.43-.95-.95Zm2.52,6.6c-.61,0-1.1-.49-1.1-1.1s.49-1.1,1.1-1.1,1.1.49,1.1,1.1-.49,1.1-1.1,1.1Zm2.83-2.62c-.69,0-1.26-.56-1.26-1.26s.56-1.26,1.26-1.26,1.26.56,1.26,1.26-.56,1.26-1.26,1.26Zm.26-5.32c-.95,0-1.72-.77-1.72-1.72s.77-1.72,1.72-1.72,1.72.77,1.72,1.72-.77,1.72-1.72,1.72Zm1.27-6.23c-.51,0-.93-.42-.93-.93s.42-.93.93-.93.93.42.93.93-.42.93-.93.93Z"/>
      <path class="cls-8" d="m186.07,34.45c-1.13-1.12-2.64-1.79-4.19-2.16-1.25-.3-2.55-.39-3.84-.3-3.55.25-10.57,2.68-8.89,7.47.44,1.24,1.5,2.25,2.76,2.63,1.43.42,2.88.06,4.36-.32-.05.64-.2,1.28-.4,1.88-.43,1.28-1.03,2.53-1.12,3.87-.09,1.35.53,2.87,1.81,3.29,1.33.44,2.8-.53,3.41-1.79.61-1.27.56-2.73.48-4.14-.07-1.21-.15-2.43-.24-3.64,1.52.19,2.98,1.02,4.49.78,1.57-.25,2.79-1.71,2.99-3.29.2-1.58-.5-3.19-1.63-4.31Z"/>
      <path class="cls-1" d="m225.25,57.69c-.5-.31-1.14-.36-1.69-.16-.41.16-.93.44-1.15.82.11-.68-.2-1.42-.77-1.8-.57-.39-1.37-.4-1.96-.04-.59.36-.93,1.08-.85,1.77.09.7.85,1.91,1.38,2.38-1.19,3.59-3.17,6.69-5.38,9.72-.1.06-.2.13-.3.19-3.14,1.83-6.71,3.12-9.22,5.86-2.22,2.42-3.31,5.95-2.44,9.12.87,3.17,3.86,5.75,7.15,5.77,3.08.02,5.89-2.11,7.36-4.82,1.47-2.71,1.78-5.9,1.63-8.98-.09-1.93-.17-4.07-.52-6.03,1.68-3.26,2.87-6.76,4.01-10.26.81.15,2.23.14,2.89-.34.54-.39.85-1.08.78-1.75-.06-.58-.41-1.13-.91-1.43Z"/>
      <g>
        <path class="cls-9" d="m174.56,111.93c-2.65,3.36-4.63,8.58-5.14,13.99-.54,5.41.41,10.91,2.37,14.72,1.03-4.16,1.61-9.22,2.11-14.28.48-5.06.87-10.14.66-14.42Z"/>
        <path class="cls-9" d="m166.14,122.15c-.3,5.55,2.22,13.61,5.63,18,.3-5.55-2.22-13.61-5.63-18Z"/>
      </g>
      <g>
        <g>
          <path class="cls-5" d="m84.31,79.88c2.4,0,2.4-3.73,0-3.73s-2.4,3.73,0,3.73h0Z"/>
          <path class="cls-5" d="m83.57,74.1c1.44,0,1.44-2.24,0-2.24s-1.44,2.24,0,2.24h0Z"/>
          <circle class="cls-5" cx="63.72" cy="79.66" r="2.51"/>
          <path class="cls-5" d="m56.5,79.25c2.4,0,2.4-3.73,0-3.73s-2.4,3.73,0,3.73h0Z"/>
          <path class="cls-5" d="m57.43,83.73c1.44,0,1.44-2.24,0-2.24s-1.44,2.24,0,2.24h0Z"/>
          <path class="cls-5" d="m50.97,83.51c2.4,0,2.4-3.73,0-3.73s-2.4,3.73,0,3.73h0Z"/>
          <path class="cls-5" d="m54.23,88.35c1.44,0,1.44-2.24,0-2.24s-1.44,2.24,0,2.24h0Z"/>
          <path class="cls-5" d="m50.41,75.31c1.44,0,1.44-2.24,0-2.24s-1.44,2.24,0,2.24h0Z"/>
          <path class="cls-5" d="m42.65,51.31c2.4,0,2.4-3.73,0-3.73s-2.4,3.73,0,3.73h0Z"/>
          <path class="cls-5" d="m40.91,44.11c1.44,0,1.44-2.24,0-2.24s-1.44,2.24,0,2.24h0Z"/>
          <path class="cls-5" d="m48.15,44.16c0,1.21-.98,2.2-2.2,2.2s-2.2-.98-2.2-2.2.98-2.2,2.2-2.2,2.2.98,2.2,2.2Z"/>
          <path class="cls-5" d="m47.43,49.75c1.44,0,1.44-2.24,0-2.24s-1.44,2.24,0,2.24h0Z"/>
          <g>
            <path class="cls-5" d="m113.62,55.97c3.36,0,3.36-5.22,0-5.22s-3.36,5.22,0,5.22h0Z"/>
            <path class="cls-5" d="m118.71,51.75c2.4,0,2.4-3.73,0-3.73s-2.4,3.73,0,3.73h0Z"/>
            <path class="cls-5" d="m116.72,59.01c1.44,0,1.44-2.24,0-2.24s-1.44,2.24,0,2.24h0Z"/>
            <path class="cls-5" d="m138.43,51.1c3.36,0,3.36-5.22,0-5.22s-3.36,5.22,0,5.22h0Z"/>
            <path class="cls-5" d="m143.08,44.02c2.4,0,2.4-3.73,0-3.73s-2.4,3.73,0,3.73h0Z"/>
            <path class="cls-5" d="m136,41.69c1.44,0,1.44-2.24,0-2.24s-1.44,2.24,0,2.24h0Z"/>
            <path class="cls-5" d="m112.07,44.11c2.4,0,2.4-3.73,0-3.73s-2.4,3.73,0,3.73h0Z"/>
            <path class="cls-5" d="m89.72,36.16c2.4,0,2.4-3.73,0-3.73s-2.4,3.73,0,3.73h0Z"/>
            <path class="cls-5" d="m95.92,34.92c1.44,0,1.44-2.24,0-2.24s-1.44,2.24,0,2.24h0Z"/>
            <path class="cls-5" d="m134.92,36.04c2.4,0,2.4-3.73,0-3.73s-2.4,3.73,0,3.73h0Z"/>
          </g>
          <path class="cls-5" d="m192.72,36.85c3.36,0,3.36-5.22,0-5.22s-3.36,5.22,0,5.22h0Z"/>
          <path class="cls-5" d="m164.6,35.54c2.4,0,2.4-3.73,0-3.73s-2.4,3.73,0,3.73h0Z"/>
          <path class="cls-5" d="m99.03,142.46c3.36,0,3.36-5.22,0-5.22s-3.36,5.22,0,5.22h0Z"/>
          <path class="cls-5" d="m106.11,144.57c2.4,0,2.4-3.73,0-3.73s-2.4,3.73,0,3.73h0Z"/>
          <path class="cls-5" d="m101.64,146.19c1.44,0,1.44-2.24,0-2.24s-1.44,2.24,0,2.24h0Z"/>
          <path class="cls-5" d="m104.37,139.23c1.44,0,1.44-2.24,0-2.24s-1.44,2.24,0,2.24h0Z"/>
          <path class="cls-5" d="m96.7,126.63c2.4,0,2.4-3.73,0-3.73s-2.4,3.73,0,3.73h0Z"/>
          <path class="cls-5" d="m87.85,89c1.44,0,1.44-2.24,0-2.24s-1.44,2.24,0,2.24h0Z"/>
          <path class="cls-5" d="m145.35,55.29c1.44,0,1.44-2.24,0-2.24s-1.44,2.24,0,2.24h0Z"/>
          <path class="cls-5" d="m212.16,68.33c2.4,0,2.4-3.73,0-3.73s-2.4,3.73,0,3.73h0Z"/>
          <path class="cls-5" d="m215.57,63.67c1.44,0,1.44-2.24,0-2.24s-1.44,2.24,0,2.24h0Z"/>
          <path class="cls-5" d="m224.53,55.15c2.4,0,2.4-3.73,0-3.73s-2.4,3.73,0,3.73h0Z"/>
          <path class="cls-5" d="m226.07,50.21c1.44,0,1.44-2.24,0-2.24s-1.44,2.24,0,2.24h0Z"/>
        </g>
        <path class="cls-5" d="m166.27,142.84c2.4,0,2.4-3.73,0-3.73s-2.4,3.73,0,3.73h0Z"/>
        <path class="cls-5" d="m174.84,146.19c3.36,0,3.36-5.22,0-5.22s-3.36,5.22,0,5.22h0Z"/>
        <path class="cls-5" d="m168.88,145.54c1.44,0,1.44-2.24,0-2.24s-1.44,2.24,0,2.24h0Z"/>
        <path class="cls-5" d="m171.58,110.61c2.4,0,2.4-3.73,0-3.73s-2.4,3.73,0,3.73h0Z"/>
        <path class="cls-5" d="m170.09,105.12c1.44,0,1.44-2.24,0-2.24s-1.44,2.24,0,2.24h0Z"/>
        <path class="cls-5" d="m169.25,115.55c1.44,0,1.44-2.24,0-2.24s-1.44,2.24,0,2.24h0Z"/>
      </g>
      <path class="cls-8" d="m62.14,22.25c.05-2.33-1.63-4.43-3.71-5.47-2.08-1.04-4.49-1.2-6.81-1.13-3.71.11-7.39.78-10.91,1.94-6.14,2.02-11.8,5.53-16.31,10.16-.24-.52-.53-1.02-.87-1.49-.58,1.52-1.76,2.72-2.64,4.09-.88,1.37-1.44,3.17-.67,4.6.04.08.11.15.16.23-.74.63-1.64,1.07-2.6,1.2-1.73.24-3.57-.49-4.67-1.85-.81.79-1.2,1.9-1.1,3.03,1.72,1.08,4.01,1.27,5.99.8,1.33-.32,2.55-1.01,3.54-1.95,1.48,1.09,3.62,1.46,5.26.76.95-.41,1.76-1.08,2.62-1.66.86-.58,1.91-1.02,2.94-1-.49-.48-1.04-.88-1.63-1.21.06-.04.12-.08.17-.11,4.94-3.14,10.79-4.82,16.64-4.78,2.96.02,5.98.46,8.85-.24,2.88-.7,5.68-2.97,5.75-5.93Z"/>
      <path class="cls-7" d="m72.54,23.16c.13-1.64-1.23-2.98-2.53-4-7.08-5.57-15.67-9.22-24.6-10.44-3.1-.43-6.25-.56-9.38-.41-5.12.25-10.71,1.1-15.43,3.19-2.44,1.08-3.83,3.94-3.65,6.63-3.05.92-5.99,2.24-8.7,3.91.01,1.89.55,4.07,1.9,5.4,1.65-3,4.38-5.39,7.53-6.74.04.07.07.14.11.21,1.17,1.93,3.22,3.14,5.43,3.72,7.17-7.61,17.76-11.89,28.2-11.32,2.49.14,5,.54,7.25,1.61,2.26,1.06,4.24,2.83,5.2,5.14.72,1.73.77,3.78.06,5.49.28.06.57.12.85.18,1.52.34,3.08.72,4.61.43,1.53-.28,3.02-1.44,3.14-2.99Z"/>
    </g>
  </g>
</svg>