<?xml version="1.0" encoding="UTF-8"?>
<svg id="Capa_1" data-name="Capa 1" xmlns="http://www.w3.org/2000/svg" viewBox="0 0 250.23 207.93">
  <defs>
    <style>
      .cls-1 {
        fill: #f2906c;
      }

      .cls-1, .cls-2, .cls-3, .cls-4, .cls-5, .cls-6, .cls-7, .cls-8, .cls-9 {
        stroke-width: 0px;
      }

      .cls-2 {
        fill: #f4a7ae;
      }

      .cls-3 {
        fill: #ee727e;
      }

      .cls-4 {
        fill: #fff;
      }

      .cls-5 {
        fill: #bc4164;
      }

      .cls-6 {
        fill: #34bef0;
      }

      .cls-7 {
        fill: #f9b96c;
      }

      .cls-8 {
        fill: #8a82bd;
      }

      .cls-9 {
        fill: #a7c049;
      }
    </style>
  </defs>
  <g>
    <path class="cls-4" d="m90.53,159.45c-6.47,0-12.56,2.52-17.14,7.1s-7.1,10.66-7.1,17.14,2.52,12.56,7.1,17.14c4.58,4.58,10.66,7.1,17.14,7.1s12.56-2.52,17.14-7.1c4.58-4.58,7.1-10.66,7.1-17.14s-2.52-12.56-7.1-17.14-10.66-7.1-17.14-7.1Z"/>
    <path class="cls-4" d="m190.9,159.45c-6.47,0-12.56,2.52-17.14,7.1s-7.1,10.66-7.1,17.14,2.52,12.56,7.1,17.14c4.58,4.58,10.66,7.1,17.14,7.1s12.56-2.52,17.14-7.1c9.45-9.45,9.45-24.83,0-34.28-4.58-4.58-10.66-7.1-17.14-7.1Z"/>
    <path class="cls-4" d="m250.23,47.78c0-2.84-2.31-5.15-5.15-5.15-.01,0-.02,0-.03,0,.01-.23.02-.46,0-.69,2.34-.82,4.02-3.05,4.02-5.66,0-3.17-2.46-5.76-5.57-5.99-.8-2.1-2.82-3.59-5.19-3.59s-4.32,1.44-5.15,3.47c-.21-.05-.41-.11-.63-.16-2.05-.5-4.34-.76-6.8-.76-.91,0-1.86.03-2.91.11-.05,0-.13.01-.19.02-1.38.16-2.56,1.03-3.14,2.26-.99-.31-2-.57-3.02-.75-.24-.04-.47-.06-.71-.06-.39,0-.78.06-1.16.17-.94.29-1.88.61-2.81.96-.08-1.56-.63-3.04-1.62-4.19-1.26-1.47-3.07-2.28-5.09-2.28s-3.83.81-5.09,2.28c-.23.27-.43.57-.62.87-1.44-1.06-3.18-1.85-5.18-2.32-1.33-.31-2.71-.47-4.1-.47-.43,0-.86.02-1.28.04-2.14.15-6.01.98-9.1,3-.99-1.92-2.96-3.2-5.28-3.2-1.78,0-3.38.72-4.51,2.03-.67.78-1.11,1.73-1.32,2.74-.35-.02-.71-.06-1.06-.06-1.39,0-2.77.18-4.11.53-3.7-3.15-8.87-5.16-13.68-5.16-.77,0-1.52.23-2.17.65-.56.36-1.06.82-1.53,1.32-1.05-.94-2.43-1.51-3.98-1.51-1.3,0-2.49.4-3.46,1.09-1.01-1.39-2.63-2.28-4.44-2.28-.44,0-.88.05-1.38.18l-10.03,2.44c-1.43.35-2.64,1.23-3.4,2.49-.23.37-.39.77-.52,1.17-2.32-.4-4.88-.61-7.63-.61-2.15,0-4.34.13-6.54.35-.37-2.54-2.46-4.44-5.1-4.44-1.16,0-2.21.38-3.07,1.01-1.01-.8-2.29-1.28-3.7-1.28-2.62,0-4.8,1.64-5.61,3.98-2.63-2.7-6.21-4.26-10.02-4.27,0,0-1.01,0-2.42,0,1.89-1.29,3.15-3.28,3.32-5.51.32-4.19-3.13-6.91-4.27-7.81C65.48,6.21,55.54,1.99,45.06.55c-2.65-.36-5.35-.55-8.05-.55-.97,0-1.95.02-2.91.07-7.17.35-13.31,1.63-18.24,3.81-3.13,1.38-5.4,4.42-6.13,7.93-2.74,1.02-5.36,2.29-7.82,3.81C.71,16.36-.01,17.66,0,19.06c.03,3.53,1.22,6.7,3.27,8.71.22.22.47.4.73.55.26,1.07.7,2.06,1.3,2.93-.93,1.48-1.37,3.25-1.21,5.05.11,1.25.8,2.37,1.86,3.03,1.82,1.14,4.03,1.75,6.39,1.75,1.07,0,2.15-.13,3.19-.37,1.17-.28,2.3-.73,3.34-1.35,1.06.36,2.19.55,3.31.55,1.27,0,2.47-.24,3.58-.71,1.16-.5,2.11-1.17,2.87-1.71.21-.15.43-.31.65-.45.47-.32.8-.4.87-.41.04,0,.07,0,.11,0,.7,0,1.37-.19,1.95-.52.6,1.3,1.6,2.4,2.91,3.14-.44.77-.7,1.65-.7,2.62,0,1.65.74,3.08,1.89,4.03-.49.88-.78,1.91-.78,3.01,0,2.78,1.77,5.06,4.26,5.79-1.93,4.77.66,11.58,6.68,17.32-1.04.95-1.7,2.31-1.7,3.87s.61,2.84,1.6,3.79c-.11.11-.22.22-.32.33-.94,1.09-1.46,2.51-1.46,4,0,2.82,1.82,5.12,4.36,5.81,0,.09-.03.18-.03.28,0,1.27.45,2.5,1.26,3.44.97,1.13,2.4,1.77,3.92,1.77.39,0,.76-.05,1.12-.13l-4.63,11.43c-.09.23-.15.46-.2.69-.01.05-.02.1-.03.16-.04.24-.06.48-.06.73,0,.03,0,.06,0,.1,0,.23.04.46.09.68,0,.03,0,.06.01.08l11.19,46.39c.44,1.82,2.06,3.06,3.89,3.06.17,0,.34-.01.52-.03l31.93-4.14c.71-.09,1.35-.37,1.89-.78.27.14.56.26.85.36.37,2.54,2.47,4.43,5.1,4.43,1.6,0,3-.72,3.94-1.84.3.05.61.08.93.08,1.71,0,3.22-.69,4.3-1.82l1,.68c2.69,1.84,5.83,2.81,9.09,2.83,0,0,42.41.2,42.41.2,2.92,0,5.5-1.56,6.91-3.92.2.47.46.91.79,1.3.97,1.13,2.4,1.77,3.92,1.77.89,0,1.7-.23,2.42-.61,1.12.83,2.52,1.32,4.08,1.32,2.48,0,4.56-1.23,5.73-3.15.25.14.5.25.78.33.38.11.77.17,1.15.17.42,0,.84-.07,1.23-.2.55.79,1.37,1.36,2.33,1.59.31.08.63.11.95.11.96,0,1.9-.34,2.63-.99.27.31.55.6.86.88.76.71,1.74,1.06,2.72,1.06.76,0,1.53-.22,2.19-.65.75.77,1.78,1.21,2.86,1.21h0c1.01,0,1.97-.38,2.7-1.05.73.65,1.68,1.01,2.66,1.01.05,0,.11,0,.16,0,1.19-.05,2.29-.62,3.01-1.56,1.66-2.16,3.12-4.77,3.18-4.88.17-.31.3-.64.39-.99l11.09-45.08c.03-.14.06-.27.08-.41.17-1.21.66-5.34.12-7.94-.15-.73-.53-1.39-1.03-1.92,1.63-1.23,3.04-2.84,4.07-4.74,1.74-3.21,2.48-7.1,2.26-11.87l-.02-.33c-.08-1.69-.16-3.55-.4-5.4,1.23-2.57,2.22-5.21,3.14-7.9,1.01-.19,1.88-.55,2.6-1.08,1.75-1.28,2.7-3.41,2.47-5.56-.09-.88-.39-1.73-.84-2.48.66-.97,1.05-2.16,1.05-3.46,0-.07,0-.14-.01-.22,2.54-.31,4.53-2.46,4.53-5.09Z"/>
  </g>
  <g>
    <path class="cls-7" d="m246.23,47.78c0,.63-.51,1.15-1.15,1.15s-1.15-.51-1.15-1.15.51-1.15,1.15-1.15,1.15.51,1.15,1.15Z"/>
    <g>
      <g>
        <polygon class="cls-6" points="97.44 150.37 65.51 154.51 54.32 108.12 96.44 102.66 97.44 150.37"/>
        <polygon class="cls-6" points="96.44 102.66 54.32 108.12 59.73 94.76 87.81 91.13 96.44 102.66"/>
        <rect class="cls-6" x="59.23" y="87.06" width="28.32" height="5.91" transform="translate(-10.96 10.17) rotate(-7.38)"/>
      </g>
      <path class="cls-5" d="m158.59,106.79c2.13-25.83-22.77-51.9-49.12-42.02-7.42,2.78-13.57,9.24-15.16,17.11-1.49,7.37,1.43,15.62,7.6,19.92,10.49,7.3,26.28,2.1,36.6,9.64,3.84,2.8,7.22,7.42,11.96,7.03,2.58-.21,4.83-2.02,6.13-4.25,1.3-2.23,1.78-4.85,1.99-7.43Zm-15.19-2c-3.41-.7-5.61-4.02-4.91-7.43.7-3.41,4.02-5.61,7.43-4.91,3.41.7,5.61,4.02,4.91,7.43-.7,3.41-4.02,5.61-7.43,4.91Z"/>
      <g>
        <path class="cls-1" d="m77.16,30.07l-11.5-.03c-.98,1.63-2.2,3.12-3.62,4.4-.06-1.47.01-2.95.2-4.41l-13.15-.04c-.38.92-.75,1.84-1.13,2.76-.28-.9-.47-1.83-.58-2.76l-8.67-.03c-3.49-.01-4.37,4.83-1.11,6.06l14.28,5.36c.73-1.97,1.85-3.8,3.27-5.34-.23,2.1-.47,4.2-.7,6.3l13.71,5.14c1.04-2.56,2.09-5.12,3.13-7.68-.22,2.87-.44,5.74-.66,8.6l2.97,1.11c5.86,2.2,12.29-1.44,13.41-7.6,1.13-6.16-3.59-11.84-9.85-11.86Z"/>
        <g>
          <path class="cls-1" d="m118.79,47.74h0c-9-5.41-24.67-8.28-35-6.41h0,0c9,5.41,24.67,8.28,35,6.41Z"/>
          <path class="cls-1" d="m114.49,59.33h0c-6.61-8.16-20.35-16.22-30.7-17.99h0,0c6.61,8.16,20.35,16.22,30.7,17.99Z"/>
          <path class="cls-1" d="m118.87,35.38h0c-9.07,5.29-24.78,7.96-35.08,5.95h0,0c9.07-5.29,24.78-7.96,35.08-5.95Z"/>
        </g>
      </g>
      <path class="cls-2" d="m161.07,64.87c-1.73-2.01-4.37-2.76-6.79-2.19l.3-2.28c.19-1.43-1.38-2.44-2.6-1.67l-3.37,2.11c-1.22.77-1,2.61.37,3.07l1.99.67c-2.43,2.51-2.59,6.5-.26,9.21,8.85,10.3,13.5,23.97,12.74,37.53-.24,4.34-1.01,7.73-2.35,10.36-1.37,2.7-3.52,4.73-5.75,5.45-2.64.85-6.2.13-9.52-1.92-3.7-2.29-6.98-5.95-10.15-9.49-2.06-2.3-5.31-2.88-7.97-1.64l.39-3.04c.19-1.43-1.38-2.44-2.6-1.67l-3.37,2.11c-1.22.77-1,2.61.37,3.07l3.12,1.04c-2.42,2.56-2.52,6.58-.13,9.26,3.64,4.07,7.77,8.68,13.16,12.01,4.86,3,10.16,4.47,15.16,4.29,1.97-.07,3.89-.4,5.72-.98,5.72-1.83,10.74-6.31,13.77-12.28,2.22-4.36,3.46-9.53,3.81-15.8.95-17.05-4.89-34.26-16.02-47.21Z"/>
      <path class="cls-9" d="m76.22,169.38c-7.9,7.9-7.9,20.72,0,28.62,7.9,7.9,20.72,7.9,28.62,0,7.9-7.9,7.9-20.72,0-28.62-7.9-7.9-20.72-7.9-28.62,0Zm25.26,11.28c-1.15-.99-2.66-2.08-4.02-2.77-.87,1.19-1.74,2.38-2.61,3.58.08-1.56.16-3.13.24-4.69-1.29-.43-2.86-.72-4.22-.81,1.07-.74,2.28-1.26,3.55-1.54.61-1.12.11-3.52-.51-4.64,1.25.92,2.75,2.83,3.53,4.17,1.71-.63,3.67-.53,5.3.29-1.24.44-2.49,1.11-3.48,1.97,1.02,1.32,1.79,2.83,2.23,4.44Z"/>
      <path class="cls-3" d="m176.59,169.38c-7.9,7.9-7.9,20.72,0,28.62s20.72,7.9,28.62,0c7.9-7.9,7.9-20.72,0-28.62-7.9-7.9-20.72-7.9-28.62,0Zm11.28,3.36c-.99,1.15-2.08,2.66-2.77,4.02,1.19.87,2.38,1.74,3.58,2.61-1.56-.08-3.13-.16-4.69-.24-.43,1.29-.72,2.86-.81,4.22-.74-1.07-1.26-2.28-1.54-3.55-1.12-.61-3.52-.11-4.64.51.92-1.25,2.83-2.75,4.17-3.53-.63-1.71-.53-3.67.29-5.3.44,1.24,1.11,2.49,1.97,3.48,1.32-1.02,2.83-1.79,4.44-2.23Z"/>
      <path class="cls-7" d="m240.7,40.3c-.24-.63-.6-1.27-1.1-1.93-.5-.6-1.13-1.2-1.9-1.79-.79-.62-1.67-1.08-2.7-1.56-1.05-.5-2.17-.84-3.42-1.14-2.51-.62-5.32-.77-8.39-.55-.03,0-.05,0-.08.01,1.94,1.46,3.48,3.48,4.35,5.75.31.82-.7,1.52-1.34.91-2.85-2.68-6.51-4.5-10.36-5.2-3.83,1.16-7.73,2.94-11.44,5.36-.44.28-.86.58-1.29.88,2.12.96,4.06,2.48,5.64,4.2,1.45,1.59,2.68,3.36,3.68,5.27.45.87-.6,1.75-1.37,1.14-2.04-1.61-4.16-3.1-6.5-4.2-2.3-1.07-4.86-1.7-7.37-1.64-.55.51-1.1,1.02-1.65,1.55-2.74,2.81-5.34,5.98-7.57,9.45-.45.71-.88,1.43-1.3,2.14,2.28-.33,4.61-.34,6.89.02,3.36.53,6.6,1.83,9.42,3.73.99.67.37,2.25-.81,2.03-6.2-1.12-12.63-.9-18.75.61-2.83,6.51-4.31,13.04-4.68,19.05,4.78-1.37,9.89-1.56,14.75-.52.73.16.69,1.21-.04,1.33-5.23.85-10.27,2.86-14.67,5.81.15,1.97.42,3.85.81,5.61,1.18,5.39,3.5,9.67,6.07,12.12,1.23,1.23,2.61,2.02,3.85,2.38,1.25.37,2.43.32,3.53-.06,1.11-.38,2.1-1.06,3-1.91.91-.85,1.69-1.83,2.54-2.97,1.61-2.23,3.15-4.92,4.89-8.1,1.66-3.08,3.62-6.72,5.79-10.75.5-.99,1.13-1.97,1.64-3,.62-.99,1.13-2.05,1.77-3.05,1.16-2.08,2.48-4.1,3.76-6.17,1.31-2.04,2.63-3.92,3.93-5.78,1.35-1.78,2.62-3.57,3.91-5.15,2.55-3.25,4.94-5.94,6.97-8.32,2.25-2.57,4.09-4.67,5.43-6.19.41-.46.84-.94,1.26-1.43.4-.44.79-.9,1.17-1.37.75-.95,1.42-1.97,1.77-3.08.36-1.11.38-2.28-.1-3.54Z"/>
      <circle class="cls-7" cx="243.07" cy="36.28" r="2.01"/>
      <path class="cls-7" d="m239.87,32.25c0,.86-.7,1.56-1.56,1.56s-1.56-.7-1.56-1.56.7-1.56,1.56-1.56,1.56.7,1.56,1.56Z"/>
      <path class="cls-7" d="m102.39,66.64c-.16-.72-.36-1.43-.6-2.11-2.08-5.95-6.69-10.97-12.45-13.55-1.54-.69-3.15-1.18-4.8-1.52-1.66,1.56-3.79,2.63-6.05,2.98-2.53.39-5.17-.14-7.38-1.42-1.99,1.34-3.29,3.46-2.11,6.21.89,2.08,2.99,3.41,5.13,4.15,2.14.75,4.42,1.05,6.55,1.81.12.04.24.1.36.14-1.04,3-2.98,5.69-5.54,7.58-1.72,1.27-3.73,2.22-5.06,3.9-1.13,1.43-1.65,3.32-1.41,5.13.24,1.8,1.23,3.5,2.69,4.58,1.01.75,2.28,1.22,3.52,1.03,1.71-.25,3.04-1.7,3.74-3.28.71-1.58.93-3.32,1.34-5.01.97-3.99,3.08-7.69,5.97-10.61.7.66,1.34,1.38,1.91,2.15,1.14,1.57,1.99,3.33,3.18,4.87.81,1.05,1.84,2.01,3.03,2.57,1.61-3.91,4.43-7.31,7.97-9.62Z"/>
      <path class="cls-9" d="m179.82,47.92c-.28-1.41-.35-2.87-.67-4.27-.82-3.55-3.35-6.66-6.66-8.19-3.16-1.45-6.94-1.41-10.08.06-2.85-3.35-8.11-5.77-12.64-5.76-1.65,1.08-2.85,3.66-2.6,5.62,2.65-.82,5.68-.88,8.31,0,1.43.48,2.77,1.22,3.96,2.14-2.11,1.96-3.69,4.72-4.09,7.54-.21,1.5-.08,3.02.48,4.44,1.79,4.54,6.31,7.45,7.38,12.37,5.42,5.87,9.3,13.16,11.14,20.93.56.04,1.12.04,1.68.02.49-5.06,1.14-10.11,2.46-15.02,1.31-4.84,3.3-9.53,6.26-13.57-2.2-1.73-4.36-3.44-4.93-6.33Z"/>
      <path class="cls-8" d="m228.5,98.65c-1.22.52-2.45.87-3.46,1.73-.23-1.02-.29-2.42-.52-3.44-1.54.57-3.06,1.31-4.22,2.46-.31-1.15-.56-2.25-.87-3.39-1.07.81-2.23,1.48-3.3,2.29-.39-1.03-.67-2.05-1.06-3.08-1.05.74-2.14,1.3-3.19,2.04-.27-1.02-.46-2.03-.73-3.05-.51.27-1.04.56-1.54.87-2.13,3.58-4.26,7.16-6.4,10.74-1.53,2.57-3.1,5.18-5.37,7.13-1.78,1.52-4.09,2.58-6.39,2.59-2.74,8.05-4.54,16.47-5.31,24.66.05,1.87-.14,3.84-.08,5.71.71-.55,1.42-1.09,2.12-1.64-.16,1.69.16,3.41.93,4.92.91-.81,1.82-1.61,2.72-2.42.48,1.64.95,3.28,1.43,4.92,1.01-.86,2.02-1.71,3.03-2.57.49,1.36.99,2.72,1.48,4.08,1.19-1.1,2.62-1.95,4.15-2.48.34,1.31,1.06,2.52,2.06,3.44,1.12-.89,2.24-1.78,3.36-2.67.31,1.17.9,2.32,1.7,3.23.89-1,1.79-2.01,2.68-3.01.89.99,1.79,1.98,2.68,2.97,1.5-1.96,2.86-4.39,2.86-4.39l11.09-45.08s.61-4.45.17-6.57Z"/>
      <path class="cls-1" d="m159.64,144.6c-7.6,2.24-16.01.31-22.76-3.85-6.37-3.92-11.42-9.64-15.7-15.78-.02,0-.05.02-.07.03l-2.79,1.14c-1.66.68-2.82,2.21-3.01,4l-.34,3.22-8.74-.93c-.89-.09-1.69.55-1.79,1.44l-.65,6.11c-.09.89.55,1.69,1.44,1.79l8.74.93-.34,3.22c-.19,1.78.62,3.53,2.1,4.54l2.49,1.7c2.02,1.38,4.41,2.12,6.85,2.13l42.37.2c2.08,0,3.84-1.56,4.06-3.63l1.42-13.38c.07-.63-.03-1.25-.24-1.81-3.5,4.12-7.9,7.42-13.05,8.93Z"/>
      <g>
        <path class="cls-8" d="m56.04,64.15c-5.11-4.23-8.15-9.32-8.35-13.3l-3.59,4.33c-2.66,3.21.33,10.07,6.67,15.32,6.34,5.25,13.64,6.91,16.3,3.71l3.59-4.33c-3.94.54-9.51-1.5-14.62-5.73Z"/>
        <path class="cls-8" d="m66.98,56.43c-.15-1.33.14-2.69.79-3.85-.4-.37-.81-.73-1.24-1.09-6.34-5.25-13.64-6.91-16.3-3.71-2.66,3.21.33,10.07,6.67,15.32,6.34,5.25,13.64,6.91,16.3,3.71.78-.95,1.06-2.21.92-3.66-1.58-.75-3.36-1.27-4.73-2.35-1.34-1.06-2.23-2.67-2.42-4.37Z"/>
      </g>
      <path class="cls-6" d="m147.77,57.74c-1.93-2.91-4.98-4.9-8.39-5.51l-3.53-14.47.08-.02c.81-.2,1.31-1.01,1.11-1.82-.2-.81-1.01-1.31-1.82-1.11l-.08.02-.68-2.8.08-.02c.81-.2,1.31-1.01,1.11-1.82-.2-.81-1.01-1.31-1.82-1.11l-.08.02-9.95,2.43-.08.02c-.81.2-1.31,1.01-1.11,1.82s1.01,1.31,1.82,1.11l.08-.02.68,2.8-.08.02c-.81.2-1.31,1.01-1.11,1.82.2.81,1.01,1.31,1.82,1.11l.08-.02,3.53,14.47c-1.86,1.43-3.28,3.34-4.12,5.5,6.66,1.28,13.07,3.9,18.71,7.67.29-3.47,1.62-7.2,3.75-10.09Z"/>
      <path class="cls-7" d="m112.31,107.79c-1.94-.15-3.98-.34-5.74-1.09-1.23.81-2.46,1.63-3.68,2.46-1.44.99-2.86,2-4.27,3.02l.19,11.97,9.82,6.49,4.88.47.3-2.38c.22-1.7,1.1-3.23,2.43-4.28l1.05-16.26c-1.66-.13-3.32-.26-4.98-.39Zm-9.58,4.38c.41,0,.74.33.74.74s-.33.74-.74.74-.74-.33-.74-.74.33-.74.74-.74Zm.02,13.05c-.76,0-1.37-.61-1.37-1.37s.61-1.37,1.37-1.37,1.37.61,1.37,1.37-.61,1.37-1.37,1.37Zm.73-6.32c-.62,0-1.13-.51-1.13-1.13s.51-1.13,1.13-1.13,1.13.51,1.13,1.13-.51,1.13-1.13,1.13Zm1.97-5.62c0-1.31,1.07-2.38,2.38-2.38s2.38,1.07,2.38,2.38-1.07,2.38-2.38,2.38-2.38-1.07-2.38-2.38Zm.96,7.59c0-.57.47-1.04,1.04-1.04s1.04.47,1.04,1.04-.47,1.04-1.04,1.04-1.04-.47-1.04-1.04Zm2.75,7.19c-.66,0-1.2-.54-1.2-1.2s.54-1.2,1.2-1.2,1.2.54,1.2,1.2-.54,1.2-1.2,1.2Zm3.09-2.85c-.76,0-1.37-.61-1.37-1.37s.61-1.37,1.37-1.37,1.37.61,1.37,1.37-.61,1.37-1.37,1.37Zm.29-5.8c-1.04,0-1.88-.84-1.88-1.88s.84-1.88,1.88-1.88,1.88.84,1.88,1.88-.84,1.88-1.88,1.88Zm1.39-6.79c-.56,0-1.02-.45-1.02-1.02s.45-1.02,1.02-1.02,1.02.45,1.02,1.02-.45,1.02-1.02,1.02Z"/>
      <path class="cls-8" d="m197.83,32.56c-1.23-1.22-2.88-1.95-4.56-2.35-1.37-.32-2.78-.43-4.18-.33-3.87.27-11.52,2.92-9.69,8.15.48,1.36,1.63,2.46,3.01,2.87,1.55.46,3.14.07,4.75-.34-.05.7-.22,1.39-.44,2.05-.47,1.39-1.13,2.76-1.22,4.22-.09,1.47.58,3.13,1.98,3.59,1.45.48,3.06-.57,3.72-1.95.66-1.38.61-2.98.53-4.51-.07-1.32-.17-2.65-.26-3.97,1.65.21,3.25,1.11,4.89.85,1.71-.27,3.04-1.87,3.26-3.59.22-1.72-.55-3.47-1.78-4.69Z"/>
      <path class="cls-1" d="m240.53,57.88c-.54-.33-1.24-.4-1.84-.17-.45.17-1.01.47-1.26.89.12-.74-.22-1.54-.84-1.96-.63-.42-1.5-.44-2.14-.04-.64.4-1.02,1.18-.92,1.93.1.77.92,2.08,1.5,2.59-1.3,3.91-3.46,7.29-5.87,10.59-.11.07-.22.14-.33.2-3.42,1.99-7.31,3.4-10.05,6.38-2.42,2.64-3.61,6.49-2.66,9.94.95,3.45,4.21,6.26,7.79,6.28,3.36.02,6.42-2.3,8.02-5.25,1.6-2.95,1.94-6.43,1.78-9.78-.1-2.11-.19-4.44-.56-6.57,1.83-3.55,3.12-7.36,4.37-11.19.88.16,2.43.16,3.15-.37.59-.43.92-1.18.85-1.9-.07-.63-.44-1.23-.99-1.56Z"/>
      <g>
        <path class="cls-9" d="m185.28,117.01c-2.89,3.66-5.05,9.35-5.6,15.25-.59,5.9.44,11.9,2.58,16.04,1.12-4.54,1.76-10.05,2.3-15.57.52-5.52.95-11.06.72-15.72Z"/>
        <path class="cls-9" d="m176.1,128.14c-.33,6.05,2.42,14.84,6.14,19.63.33-6.05-2.42-14.84-6.14-19.63Z"/>
      </g>
      <g>
        <g>
          <path class="cls-5" d="m86.91,82.07c2.61,0,2.62-4.06,0-4.06s-2.62,4.06,0,4.06h0Z"/>
          <path class="cls-5" d="m86.1,75.77c1.57,0,1.57-2.44,0-2.44s-1.57,2.44,0,2.44h0Z"/>
          <circle class="cls-5" cx="64.46" cy="81.83" r="2.74"/>
          <path class="cls-5" d="m56.59,81.39c2.61,0,2.62-4.06,0-4.06s-2.62,4.06,0,4.06h0Z"/>
          <path class="cls-5" d="m57.6,86.26c1.57,0,1.57-2.44,0-2.44s-1.57,2.44,0,2.44h0Z"/>
          <path class="cls-5" d="m50.56,86.03c2.61,0,2.62-4.06,0-4.06s-2.62,4.06,0,4.06h0Z"/>
          <path class="cls-5" d="m54.12,91.31c1.57,0,1.57-2.44,0-2.44s-1.57,2.44,0,2.44h0Z"/>
          <path class="cls-5" d="m49.95,77.09c1.57,0,1.57-2.44,0-2.44s-1.57,2.44,0,2.44h0Z"/>
          <path class="cls-5" d="m41.49,50.94c2.61,0,2.62-4.06,0-4.06s-2.62,4.06,0,4.06h0Z"/>
          <path class="cls-5" d="m39.6,43.08c1.57,0,1.57-2.44,0-2.44s-1.57,2.44,0,2.44h0Z"/>
          <path class="cls-5" d="m47.48,43.14c0,1.32-1.07,2.4-2.4,2.4s-2.4-1.07-2.4-2.4,1.07-2.4,2.4-2.4,2.4,1.07,2.4,2.4Z"/>
          <path class="cls-5" d="m46.71,49.23c1.57,0,1.57-2.44,0-2.44s-1.57,2.44,0,2.44h0Z"/>
          <g>
            <path class="cls-5" d="m118.85,56.01c3.66,0,3.66-5.69,0-5.69s-3.66,5.69,0,5.69h0Z"/>
            <path class="cls-5" d="m124.4,51.41c2.61,0,2.62-4.06,0-4.06s-2.62,4.06,0,4.06h0Z"/>
            <path class="cls-5" d="m122.24,59.33c1.57,0,1.57-2.44,0-2.44s-1.57,2.44,0,2.44h0Z"/>
            <path class="cls-5" d="m145.89,50.7c3.66,0,3.66-5.69,0-5.69s-3.66,5.69,0,5.69h0Z"/>
            <path class="cls-5" d="m150.97,42.98c2.61,0,2.62-4.06,0-4.06s-2.62,4.06,0,4.06h0Z"/>
            <path class="cls-5" d="m143.25,40.45c1.57,0,1.57-2.44,0-2.44s-1.57,2.44,0,2.44h0Z"/>
            <path class="cls-5" d="m117.16,43.08c2.61,0,2.62-4.06,0-4.06s-2.62,4.06,0,4.06h0Z"/>
            <path class="cls-5" d="m92.8,34.42c2.61,0,2.62-4.06,0-4.06s-2.62,4.06,0,4.06h0Z"/>
            <path class="cls-5" d="m99.56,33.07c1.57,0,1.57-2.44,0-2.44s-1.57,2.44,0,2.44h0Z"/>
            <path class="cls-5" d="m142.07,34.29c2.61,0,2.62-4.06,0-4.06s-2.62,4.06,0,4.06h0Z"/>
          </g>
          <path class="cls-5" d="m205.08,35.17c3.66,0,3.66-5.69,0-5.69s-3.66,5.69,0,5.69h0Z"/>
          <path class="cls-5" d="m174.42,33.74c2.61,0,2.62-4.06,0-4.06s-2.62,4.06,0,4.06h0Z"/>
          <path class="cls-5" d="m102.95,150.29c3.66,0,3.66-5.69,0-5.69s-3.66,5.69,0,5.69h0Z"/>
          <path class="cls-5" d="m110.66,152.59c2.61,0,2.62-4.06,0-4.06s-2.62,4.06,0,4.06h0Z"/>
          <path class="cls-5" d="m105.79,154.35c1.57,0,1.57-2.44,0-2.44s-1.57,2.44,0,2.44h0Z"/>
          <path class="cls-5" d="m108.77,146.77c1.57,0,1.57-2.44,0-2.44s-1.57,2.44,0,2.44h0Z"/>
          <path class="cls-5" d="m100.41,133.03c2.61,0,2.62-4.06,0-4.06s-2.62,4.06,0,4.06h0Z"/>
          <path class="cls-5" d="m90.77,92.02c1.57,0,1.57-2.44,0-2.44s-1.57,2.44,0,2.44h0Z"/>
          <path class="cls-5" d="m153.44,55.27c1.57,0,1.57-2.44,0-2.44s-1.57,2.44,0,2.44h0Z"/>
          <path class="cls-5" d="m226.26,69.48c2.61,0,2.62-4.06,0-4.06s-2.62,4.06,0,4.06h0Z"/>
          <path class="cls-5" d="m229.99,64.4c1.57,0,1.57-2.44,0-2.44s-1.57,2.44,0,2.44h0Z"/>
          <path class="cls-5" d="m239.75,55.11c2.61,0,2.62-4.06,0-4.06s-2.62,4.06,0,4.06h0Z"/>
          <path class="cls-5" d="m241.42,49.73c1.57,0,1.57-2.44,0-2.44s-1.57,2.44,0,2.44h0Z"/>
        </g>
        <path class="cls-5" d="m176.25,150.7c2.61,0,2.62-4.06,0-4.06s-2.62,4.06,0,4.06h0Z"/>
        <path class="cls-5" d="m185.59,154.35c3.66,0,3.66-5.69,0-5.69s-3.66,5.69,0,5.69h0Z"/>
        <path class="cls-5" d="m179.09,153.64c1.57,0,1.57-2.44,0-2.44s-1.57,2.44,0,2.44h0Z"/>
        <path class="cls-5" d="m182.03,115.57c2.61,0,2.62-4.06,0-4.06s-2.62,4.06,0,4.06h0Z"/>
        <path class="cls-5" d="m180.41,109.58c1.57,0,1.57-2.44,0-2.44s-1.57,2.44,0,2.44h0Z"/>
        <path class="cls-5" d="m179.5,120.95c1.57,0,1.57-2.44,0-2.44s-1.57,2.44,0,2.44h0Z"/>
      </g>
      <path class="cls-8" d="m62.73,19.25c.06-2.53-1.78-4.83-4.04-5.96-2.27-1.14-4.89-1.3-7.43-1.23-4.04.12-8.05.85-11.89,2.12-6.69,2.2-12.86,6.02-17.78,11.07-.26-.57-.58-1.11-.95-1.62-.64,1.66-1.92,2.96-2.88,4.46-.95,1.49-1.57,3.45-.74,5.02.05.09.12.17.18.25-.8.69-1.79,1.16-2.84,1.31-1.89.26-3.89-.53-5.09-2.01-.89.86-1.31,2.07-1.2,3.3,1.88,1.18,4.37,1.39,6.53.87,1.44-.34,2.78-1.1,3.85-2.12,1.62,1.18,3.94,1.59,5.73.82,1.04-.44,1.92-1.18,2.85-1.81.94-.63,2.08-1.11,3.21-1.08-.54-.52-1.13-.96-1.77-1.32.06-.04.13-.08.19-.12,5.38-3.42,11.76-5.25,18.14-5.21,3.23.02,6.51.5,9.65-.26,3.14-.76,6.19-3.24,6.26-6.46Z"/>
      <path class="cls-7" d="m74.08,20.25c.14-1.79-1.34-3.25-2.75-4.36-7.72-6.07-17.08-10.05-26.81-11.38-3.38-.46-6.81-.61-10.22-.44-5.58.27-11.67,1.2-16.82,3.47-2.66,1.18-4.17,4.3-3.98,7.22-3.33,1.01-6.53,2.44-9.49,4.26.02,2.06.59,4.44,2.07,5.88,1.8-3.27,4.78-5.87,8.21-7.35.04.08.08.16.12.23,1.28,2.1,3.51,3.42,5.92,4.06,7.81-8.29,19.35-12.96,30.74-12.34,2.71.15,5.45.59,7.91,1.75,2.46,1.16,4.63,3.09,5.67,5.6.78,1.89.83,4.12.06,5.99.31.07.62.13.92.19,1.66.37,3.36.78,5.03.47,1.67-.31,3.3-1.57,3.43-3.26Z"/>
    </g>
  </g>
</svg>